<svg viewBox="0 0 512.127 512.127"
     xmlns="http://www.w3.org/2000/svg" fill="#305ba4"><path d="m512.063 0v473.6c0 10.26-3.99 19.9-11.25 27.16-24.107 24.107-65.55 6.848-65.55-27.16v-380.8c0-8.84-7.16-16-16-16h-310.4v-76.8z"/><path d="m413.663 510.38c-1.452-2.182-4.118-7.265-5.98-12.25-6.348-17.144-4.42 5.956-4.42-389.33h-403.2v364.8c0 21.17 17.23 38.4 38.4 38.4 405.466 0 376.696.8 375.2-1.62zm-223.2-45.85c0 8.84-7.16 16-16 16h-126.93c-8.84 0-16-7.16-16-16v-126.93c0-8.84 7.16-16 16-16h126.93c8.84 0 16 7.16 16 16zm165.33 16h-117.86c-8.84 0-16-7.16-16-16 0-8.83 7.16-16 16-16h117.86c8.84 0 16 7.17 16 16 0 8.84-7.16 16-16 16zm0-63.46h-117.86c-8.84 0-16-7.17-16-16 0-8.84 7.16-16 16-16h117.86c8.84 0 16 7.16 16 16 0 8.83-7.16 16-16 16zm0-63.47h-117.86c-8.84 0-16-7.16-16-16s7.16-16 16-16h117.86c8.84 0 16 7.16 16 16s-7.16 16-16 16zm16-79.47c0 8.84-7.16 16-16 16h-308.26c-8.84 0-16-7.16-16-16v-117.86c0-8.84 7.16-16 16-16h308.26c8.84 0 16 7.16 16 16z"/><path d="m63.533 172.27h276.26v85.86h-276.26z"/><path d="m63.533 353.6h94.93v94.93h-94.93z"/></svg>