<svg xmlns="http://www.w3.org/2000/svg"  x="0px" y="0px" width="200" height="200"
	 viewBox="0 0 60.001 60.001" fill="#305ba4">
<g>
	<path d="M59.693,55.136L47.849,34.83c-0.405-0.695-1.128-1.11-1.933-1.11c-0.805,0-1.528,0.415-1.933,1.11L32.137,55.136
		c-0.409,0.7-0.412,1.539-0.008,2.242c0.404,0.703,1.129,1.123,1.94,1.123h23.691c0.811,0,1.536-0.42,1.939-1.123
		C60.104,56.675,60.102,55.837,59.693,55.136z M57.966,56.382c-0.03,0.055-0.092,0.119-0.205,0.119H34.07
		c-0.114,0-0.175-0.064-0.206-0.119s-0.056-0.14,0.001-0.238L45.71,35.838c0.057-0.098,0.143-0.118,0.206-0.118
		c0.062,0,0.148,0.021,0.205,0.118l11.845,20.306C58.022,56.242,57.998,56.327,57.966,56.382z"/>
	<path d="M46,40.501c-0.552,0-1,0.447-1,1v8c0,0.553,0.448,1,1,1s1-0.447,1-1v-8C47,40.948,46.552,40.501,46,40.501z"/>
	<path d="M45.29,52.791c-0.18,0.189-0.29,0.45-0.29,0.71s0.11,0.52,0.29,0.71c0.19,0.18,0.45,0.29,0.71,0.29
		c0.26,0,0.52-0.11,0.71-0.29c0.18-0.19,0.29-0.45,0.29-0.71s-0.11-0.521-0.29-0.71C46.33,52.421,45.67,52.421,45.29,52.791z"/>
	<path d="M45.916,30.719c0.051,0,0.101,0.009,0.152,0.01c0.626-1.145,1.171-2.347,1.605-3.612C49.084,26.47,50,25.076,50,23.501v-4
		c0-0.963-0.36-1.896-1-2.625v-5.319c0.056-0.55,0.276-3.824-2.092-6.525c-2.054-2.343-5.387-3.53-9.908-3.53
		s-7.854,1.188-9.908,3.53c-1.435,1.637-1.918,3.481-2.064,4.805C23.314,8.949,21.294,8.501,19,8.501c-10.389,0-10.994,8.855-11,9
		v4.579c-0.648,0.706-1,1.521-1,2.33v3.454c0,1.079,0.483,2.085,1.311,2.765c0.825,3.11,2.854,5.46,3.644,6.285v2.743
		c0,0.787-0.428,1.509-1.171,1.915l-6.653,4.173C1.583,47.135,0,49.802,0,52.704v3.797h14h2h12.85
		c-0.045-0.992,0.18-1.993,0.696-2.877l11.845-20.306C42.325,31.716,44.059,30.719,45.916,30.719z M14,54.501H2v-1.797
		c0-2.17,1.183-4.164,3.089-5.203l0.053-0.029l0.052-0.032l6.609-4.146c1.349-0.764,2.152-2.118,2.152-3.636v-2.743v-0.803
		l-0.555-0.58c-0.558-0.583-2.435-2.698-3.156-5.415l-0.165-0.624L9.58,29.083C9.211,28.781,9,28.336,9,27.864V24.41
		c0-0.298,0.168-0.645,0.474-0.978L10,22.858V22.08v-4.506c0.078-0.921,0.901-7.073,9-7.073c2.392,0,4.408,0.552,6,1.644v4.73
		c-0.648,0.731-1,1.647-1,2.626v4c0,0.304,0.035,0.603,0.101,0.893c0.199,0.867,0.687,1.646,1.393,2.214
		c0.001,0.001,0.002,0.002,0.003,0.003c0.006,0.023,0.014,0.043,0.019,0.066c0.055,0.212,0.116,0.432,0.192,0.686l0.074,0.239
		c0.011,0.036,0.024,0.067,0.035,0.103c0.063,0.197,0.129,0.386,0.197,0.576c0.031,0.088,0.06,0.184,0.092,0.27
		c0.06,0.162,0.117,0.303,0.173,0.444c0.048,0.12,0.096,0.236,0.146,0.353c0.037,0.088,0.075,0.18,0.113,0.266l0.004-0.002
		c0.018,0.042,0.037,0.083,0.055,0.125l-0.004,0.002c0.025,0.055,0.05,0.105,0.075,0.159c0.098,0.215,0.195,0.424,0.295,0.625
		c0.017,0.034,0.032,0.071,0.049,0.104c0.027,0.053,0.054,0.097,0.08,0.149c0.156,0.305,0.31,0.591,0.463,0.86
		c0.018,0.031,0.034,0.06,0.052,0.091c0.575,0.997,1.101,1.74,1.391,2.12L29,37.156c0,0.242-0.033,0.479-0.096,0.706
		c-0.188,0.68-0.644,1.267-1.282,1.615l-8.921,4.866c-0.247,0.135-0.474,0.294-0.705,0.449c-0.108,0.072-0.225,0.133-0.329,0.21
		c-0.018,0.013-0.033,0.03-0.051,0.043C15.361,46.732,14,49.394,14,52.262V54.501z"/>
</g>
</svg>
